<svg width="105" height="40" viewBox="0 0 105 40" fill="none" xmlns="http://www.w3.org/2000/svg">
<path d="M5.23804 4.76926V6.59526H21.0495H36.8609V21.8262V37.0571H38.1758H39.4908V32.1312C39.4908 29.4245 39.4843 22.7907 39.4757 17.3944L39.4627 7.5813L37.6111 5.26121L35.7594 2.94327H20.4976H5.23804V4.76926Z" fill="#E72A87"/>
<path d="M5.23804 10.9025V12.7392H17.9454H30.6527V24.8982V37.0571H31.9569H33.261V25.418V13.7811L31.3727 11.4223L29.4844 9.06572H17.3612H5.23804V10.9025Z" fill="#E72A87"/>
<path d="M48.8677 24.5329V37.0506L52.5926 37.0613C57.447 37.0785 60.1566 37.0528 62.5451 36.9711C63.2543 36.9453 63.4698 36.926 63.7953 36.8616C64.4592 36.7241 65.2525 36.3395 65.9078 35.8347C67.0438 34.9604 67.9837 33.5941 68.3976 32.2171C68.6131 31.4974 68.7123 30.6704 68.6929 29.7531C68.6713 28.7305 68.4967 27.9615 68.1044 27.1774C67.5741 26.114 66.7248 25.2719 65.4659 24.5544C65.3172 24.4706 65.1965 24.3975 65.1965 24.3933C65.1965 24.389 65.2827 24.3267 65.3883 24.2536C66.7701 23.3148 67.5353 22.0946 67.7616 20.4727C67.8996 19.4781 67.8026 18.1333 67.5008 16.8207C67.1171 15.1602 66.1816 13.7488 64.8947 12.8916C64.2437 12.4577 63.5431 12.1827 62.7822 12.0603C62.558 12.0238 62.142 12.0216 55.7074 12.0195L48.8677 12.0152V24.5329ZM61.0146 16.5587C61.769 16.7713 62.2368 17.3406 62.4696 18.3331C62.5817 18.8036 62.6399 19.68 62.6011 20.2944C62.5257 21.4824 62.2346 22.1827 61.6936 22.4684C61.4349 22.6059 61.6526 22.5995 57.6691 22.5995H54.0412V19.564C54.0412 17.8927 54.0476 16.52 54.0562 16.5114C54.0649 16.505 55.5954 16.5007 57.4556 16.5028L60.8421 16.5093L61.0146 16.5587ZM61.7044 26.3052C61.9221 26.3438 62.1635 26.4319 62.3618 26.5458C62.6528 26.7155 62.9934 27.1 63.181 27.4738C63.2737 27.6607 63.4073 28.0667 63.459 28.3245C63.597 29.0119 63.6164 30.1097 63.5043 30.795C63.362 31.6586 63.0559 32.1999 62.5709 32.4384C62.2454 32.5973 62.5472 32.5887 58.0678 32.5887H54.0412V29.4308V26.2729H57.779C61.0253 26.2729 61.5405 26.2772 61.7044 26.3052Z" fill="#100F10"/>
<path d="M82.6765 12.0322C81.3939 12.0859 80.0531 12.3114 78.7769 12.6852C76.9856 13.2094 75.5414 13.9548 74.2609 15.0139C73.957 15.2674 73.3642 15.8496 73.1034 16.1567C71.7928 17.6927 70.9176 19.6068 70.4584 21.9441C70.051 24.0214 70.0726 26.0128 70.5253 27.8624C70.9715 29.6949 71.8488 31.3941 73.1529 32.9559C74.3709 34.4145 76.007 35.4951 78.0656 36.1976C81.7452 37.4543 86.3884 37.3039 89.7921 35.8238C90.1845 35.6519 90.7902 35.3383 91.0079 35.1922C91.355 34.9623 91.7063 34.5671 91.8141 34.2899C91.9133 34.0429 91.9499 32.9688 91.924 31.1428L91.9046 29.7292L91.6675 29.9054C91.0877 30.3372 90.4733 30.7088 89.7921 31.0418C88.3867 31.7292 86.9834 32.0966 85.1791 32.2491C84.7566 32.2856 83.0752 32.2835 82.6247 32.2491C81.9716 32.1954 81.4413 32.1052 80.8938 31.957C79.9884 31.7078 78.9882 31.1922 78.2165 30.5778C77.9319 30.3522 77.2572 29.6841 77.0546 29.4306C76.1881 28.3458 75.7203 27.0654 75.5953 25.45C75.5629 25.0268 75.5823 23.8345 75.6276 23.392C75.8087 21.6369 76.4424 20.2148 77.5569 19.0697C78.6045 17.9935 80.0207 17.2717 81.6159 17.0053C82.7476 16.8141 84.5799 16.7776 85.8258 16.9194C87.8758 17.1535 89.6283 17.8087 91.1976 18.928C91.3442 19.0311 91.4714 19.1213 91.4843 19.1299C91.4994 19.1385 91.5059 18.3286 91.5059 16.653V14.1632L91.0295 13.9333C88.8415 12.8743 86.8174 12.2749 84.7803 12.0837C84.0582 12.0171 83.3943 11.9999 82.6765 12.0322Z" fill="#100F10"/>
<path d="M94.6853 12.0346C94.6788 12.0496 94.6766 17.6844 94.6788 24.5544L94.6853 37.0464L97.2246 37.0528L99.7617 37.0571V24.533V12.0088H97.2289C95.222 12.0088 94.6917 12.0152 94.6853 12.0346Z" fill="#100F10"/>
<path d="M5.23804 17.0142V18.9046L14.7831 18.9089L24.326 18.9153L24.3411 24.1355C24.3497 27.0077 24.3627 31.0894 24.3713 33.2075L24.3842 37.0571H25.7185H27.0529V28.5007V19.9443L25.1839 17.534L23.3129 15.1259L14.2765 15.1237H5.23804V17.0142Z" fill="#E72A87"/>
<path d="M5.23804 27.2462V33.1173L7.11773 35.0872L8.99958 37.0571H14.8995H20.8016V31.6329V26.2107L18.9327 23.794L17.0616 21.3751H11.1509H5.23804V27.2462ZM18.937 30.0754V35.0271H13.9791H9.02114L9.01467 30.0969C9.01252 27.3858 9.01467 25.1538 9.02114 25.1388C9.02761 25.1173 10.0321 25.113 13.9834 25.1173L18.937 25.1237V30.0754Z" fill="#E72A87"/>
</svg>
